<svg xmlns="http://www.w3.org/2000/svg" width="19.747" height="19.747" viewBox="0 0 19.747 19.747"><defs><style>.a,.b{fill:none;}.b{stroke:#000;stroke-linecap:round;stroke-linejoin:round;stroke-width:1.333px;}</style></defs><rect class="a" width="19" height="19"/><g transform="translate(1.2 1.2)"><path class="b" d="M14.222,13.821A8.058,8.058,0,0,1,9.469,15.47c-5.6,0-8.8-6.4-8.8-6.4A14.764,14.764,0,0,1,4.716,4.315M7.788,2.859a7.3,7.3,0,0,1,1.68-.192c5.6,0,8.8,6.4,8.8,6.4a14.8,14.8,0,0,1-1.728,2.553m-5.377-.856A2.4,2.4,0,1,1,7.772,7.372" transform="translate(-0.667 -0.266)"/><path class="b" d="M.667.667l17.6,17.6" transform="translate(-0.667 -0.667)"/></g></svg>