<svg xmlns="http://www.w3.org/2000/svg" width="146" height="140" viewBox="0 0 146 140"><defs><style>.a{fill:#eaecee;}.b,.c{stroke:none;}.c{fill:#1d3b56;}</style></defs><g class="a"><path class="b" d="M 134 139.5 L 12 139.5 C 8.92823600769043 139.5 6.040327072143555 138.3038024902344 3.86827278137207 136.1317291259766 C 1.696200013160706 133.9596710205078 0.5 131.0717620849609 0.5 128 L 0.5 12 C 0.5 8.92823600769043 1.696200013160706 6.040327072143555 3.86827278137207 3.86827278137207 C 6.040327072143555 1.696200013160706 8.92823600769043 0.5 12 0.5 L 134 0.5 C 137.0717620849609 0.5 139.9596710205078 1.696200013160706 142.1317291259766 3.86827278137207 C 144.3038024902344 6.040327072143555 145.5 8.92823600769043 145.5 12 L 145.5 128 C 145.5 131.0717620849609 144.3038024902344 133.9596710205078 142.1317291259766 136.1317291259766 C 139.9596710205078 138.3038024902344 137.0717620849609 139.5 134 139.5 Z"/><path class="c" d="M 12 1 C 9.061798095703125 1 6.2994384765625 2.144195556640625 4.221817016601562 4.221817016601562 C 2.144195556640625 6.2994384765625 1 9.061798095703125 1 12 L 1 128 C 1 130.9382019042969 2.144195556640625 133.7005462646484 4.221817016601562 135.7781677246094 C 6.299453735351562 137.8558044433594 9.061798095703125 139 12 139 L 134 139 C 136.9382019042969 139 139.7005462646484 137.8558044433594 141.7781677246094 135.7781677246094 C 143.8558044433594 133.7005462646484 145 130.9382019042969 145 128 L 145 12 C 145 9.061798095703125 143.8558044433594 6.299453735351562 141.7781677246094 4.221817016601562 C 139.7005462646484 2.144195556640625 136.9382019042969 1 134 1 L 12 1 M 12 0 L 134 0 C 140.6273956298828 0 146 5.372573852539062 146 12 L 146 128 C 146 134.6273956298828 140.6273956298828 140 134 140 L 12 140 C 5.372573852539062 140 0 134.6273956298828 0 128 L 0 12 C 0 5.372573852539062 5.372573852539062 0 12 0 Z"/></g></svg>