<svg xmlns="http://www.w3.org/2000/svg" xmlns:xlink="http://www.w3.org/1999/xlink" width="427" height="289" viewBox="0 0 427 289"><defs><style>.a,.c{fill:none;}.b{clip-path:url(#a);}.c{stroke:#c8cdce;}</style><clipPath id="a"><rect class="a" width="427" height="289"/></clipPath></defs><g class="b"><g transform="translate(-741.5 -614)"><g transform="translate(741.5 614.5)"><line class="c" x2="427"/></g></g><g transform="translate(-741.5 -594)"><g transform="translate(741.5 614.5)"><line class="c" x2="427"/></g></g><g transform="translate(-741.5 -574)"><g transform="translate(741.5 614.5)"><line class="c" x2="427"/></g></g><g transform="translate(-741.5 -554)"><g transform="translate(741.5 614.5)"><line class="c" x2="427"/></g></g><g transform="translate(-741.5 -534)"><g transform="translate(741.5 614.5)"><line class="c" x2="427"/></g></g><g transform="translate(-741.5 -514)"><g transform="translate(741.5 614.5)"><line class="c" x2="427"/></g></g><g transform="translate(-741.5 -494)"><g transform="translate(741.5 614.5)"><line class="c" x2="427"/></g></g><g transform="translate(-741.5 -474)"><g transform="translate(741.5 614.5)"><line class="c" x2="427"/></g></g><g transform="translate(-741.5 -454)"><g transform="translate(741.5 614.5)"><line class="c" x2="427"/></g></g><g transform="translate(-741.5 -434)"><g transform="translate(741.5 614.5)"><line class="c" x2="427"/></g></g><g transform="translate(-741.5 -414)"><g transform="translate(741.5 614.5)"><line class="c" x2="427"/></g></g><g transform="translate(-741.5 -394)"><g transform="translate(741.5 614.5)"><line class="c" x2="427"/></g></g><g transform="translate(-741.5 -374)"><g transform="translate(741.5 614.5)"><line class="c" x2="427"/></g></g><g transform="translate(-741.5 -354)"><g transform="translate(741.5 614.5)"><line class="c" x2="427"/></g></g><g transform="translate(-741.5 -334)"><g transform="translate(741.5 614.5)"><line class="c" x2="427"/></g></g></g></svg>